PathFileType	4	(X/Y/Z)	C:/Users/beibeiliu/ov580/test_trc/User3\sequence.40_training_dense_left.trc
DataRate	CameraRate	NumFrames	NumMarkers	Units	OrigDataRate	OrigDataStartFrame	OrigNumFrames
120	120	11	19	mm	120	1	72
Frame#	Time	ThumbCMC			ThumbMCP			ThumbIP			ThumbTip			IndexMCP			IndexPIP			IndexTip			MiddleMCP			MiddlePIP			MiddleTip			RingMCP			RingPIP			RingTip			PinkyMCP			PinkyPIP			PinkyTip			BackHand1			BackHand2			BackHand3	
		X0	Y0	Z0	X1	Y1	Z1	X2	Y2	Z2	X3	Y3	Z3	X4	Y4	Z4	X5	Y5	Z5	X6	Y6	Z6	X7	Y7	Z7	X8	Y8	Z8	X9	Y9	Z9	X10	Y10	Z10	X11	Y11	Z11	X12	Y12	Z12	X13	Y13	Z13	X14	Y14	Z14	X15	Y15	Z15	X16	Y16	Z16	X17	Y17	Z17	X18	Y18	Z18	
0	0	-170.314	11.0018	31.4825	-154.874	24.7192	7.79057	-145.311	40.0172	-17.2357	-133.222	46.7771	-39.5151	-172.564	-22.3201	-40.5998	-165.104	-16.6087	-67.559	-147.766	-11.0551	-94.0835	-166.277	-45.55	-42.8239	-155.607	-47.5149	-71.6753	-132.321	-43.8129	-96.3745	-153.215	-60.4069	-33.4716	-143.052	-65.5374	-54.6918	-122.319	-65.6348	-75.2521	-135.164	-75.1246	-12.9935	-122.438	-78.5786	-28.2697	-105.579	-76.6525	-48.2283	-172.518	-57.5557	16.2258	-175.933	-53.8804	51.1127	-187.134	-26.9611	25.8915	
1	0.00833333	-179.056	1.68762	29.7299	-170.199	19.8052	5.66691	-160.664	30.3958	-18.3552	-150.925	42.1699	-40.7446	-174.544	-32.133	-41.3065	-166.808	-26.7026	-70.8302	-151.255	-18.2821	-93.9547	-163.221	-52.6806	-44.3038	-153.831	-52.6837	-68.4339	-129.483	-45.3233	-94.8659	-145.544	-67.6286	-28.884	-135.89	-66.4063	-53.2461	-112.612	-62.278	-77.2907	-129.98	-71.644	-8.37362	-111.185	-75.1537	-30.7446	-96.9537	-73.2826	-45.3698	-165.736	-64.8488	21.7358	-172.82	-61.086	49.4403	-187.826	-36.5404	24.6899	
2	0.0166667	-185.594	-5.71123	31.4899	-180.383	11.9621	8.20051	-174.397	27.8965	-22.4324	-165.876	35.861	-37.5766	-177.528	-35.6884	-45.4695	-169.133	-33.3913	-68.6026	-159.925	-21.1739	-91.8686	-159.191	-59.2091	-40.238	-149.351	-56.2409	-68.6925	-131.162	-44.4947	-94.494	-144.128	-65.5647	-27.9977	-127.72	-65.8996	-56.0431	-107.97	-59.5127	-75.3197	-123.121	-72.0403	-8.8534	-105.769	-71.1753	-27.9106	-91.8473	-64.5864	-44.3757	-160.611	-70.2934	21.667	-167.464	-64.9083	49.3584	-186.452	-45.6306	27.9038	
3	0.025	-191.769	-12.061	26.1229	-187.064	4.45797	5.16708	-184.368	20.3651	-20.4424	-178.393	31.746	-36.9132	-174.912	-43.7215	-44.4238	-171.503	-36.208	-72.6455	-158.608	-29.8898	-90.335	-157.408	-60.9659	-39.5557	-144.879	-58.2407	-70.4905	-127.392	-45.6094	-94.3676	-139.207	-67.013	-30.617	-123.43	-66.0089	-54.801	-109.45	-57.3281	-72.9676	-121.615	-66.9711	-8.95262	-104.999	-66.6	-29.6427	-87.8812	-60.9601	-45.4493	-155.268	-71.7943	18.3653	-159.546	-71.4889	49.0933	-185.201	-52.7318	24.5444	
4	0.0333333	-191.477	-22.7719	31.5418	-194.065	-3.32075	4.2235	-195.825	13.8067	-18.5704	-190.255	25.7361	-38.6689	-177.481	-49.461	-41.0446	-172.603	-45.0576	-67.3828	-165.026	-33.5593	-91.2515	-155.326	-65.1358	-45.2029	-144.001	-58.3041	-72.6909	-130.498	-45.8995	-94.4754	-131.176	-69.3605	-28.017	-120.747	-65.2487	-56.6103	-103.633	-52.7605	-75.39	-111.721	-67.1794	-9.34412	-102.683	-62.5347	-28.7073	-84.8136	-54.8838	-45.8276	-150.187	-76.6144	19.4845	-158.865	-73.4226	46.7962	-181.047	-59.6966	25.3245	
5	0.0416667	-192.835	-31.2369	29.0135	-198.63	-13.3665	6.97962	-201.165	2.35602	-20.0733	-199.922	16.684	-38.2893	-177.557	-55.133	-38.7477	-169.086	-50.3054	-69.372	-166.585	-38.3441	-90.0348	-148.749	-68.7317	-42.2824	-143.011	-62.3133	-69.6977	-127.553	-46.4728	-93.5938	-127.592	-70.0796	-27.5775	-115.896	-65.0217	-55.0281	-103.304	-52.1726	-72.892	-110.858	-65.53	-9.8107	-100.446	-59.9231	-26.9104	-83.7647	-47.7682	-44.099	-148.734	-77.3801	22.7308	-151.496	-76.8808	50.0029	-180.957	-64.8944	27.1444	
6	0.05	-195.394	-36.9915	30.3515	-203.119	-18.5693	7.66301	-204.535	-3.38149	-13.3921	-203.579	9.01047	-34.5056	-171.94	-60.5678	-42.2734	-173.604	-53.651	-65.4817	-166.089	-41.5426	-89.2101	-145.578	-70.4044	-42.3902	-142.829	-63.8034	-67.6317	-129.782	-44.7154	-96.1646	-130.271	-68.4118	-27.1597	-116.9	-63.6275	-53.4153	-106.118	-46.8663	-78.2236	-106.069	-62.6623	-9.82402	-94.5363	-53.5273	-31.3151	-83.5004	-41.3277	-46.5221	-144.86	-76.6342	22.8032	-145.524	-79.2123	52	-175.131	-72.0797	29.8105	
7	0.0583333	-195.58	-38.7747	34.964	-202.844	-18.9157	11.2005	-207.879	-2.01553	-16.9061	-206.009	12.045	-34.1631	-172.868	-61.3152	-41.4665	-173.124	-52.0302	-70.2378	-166.119	-41.3049	-89.687	-146.468	-68.855	-43.1395	-141.155	-61.8227	-68.782	-133.212	-38.7447	-98.7005	-129.231	-66.449	-29.49	-114.253	-59.8733	-54.1783	-105.885	-43.9086	-75.1093	-104.637	-59.39	-13.6174	-96.5409	-50.1006	-29.7961	-84.7507	-32.9393	-49.4789	-137.581	-77.2502	22.9621	-142.662	-78.5038	49.2768	-176.01	-73.1899	27.9509	
8	0.0666667	-195.532	-35.6528	31.6253	-201.493	-14.7148	8.4841	-203.06	1.82372	-14.1348	-199.199	17.152	-36.0753	-174.999	-58.9569	-39.8422	-173.68	-49.836	-71.487	-172.106	-33.3729	-93.7655	-149.648	-66.193	-41.0395	-139.986	-57.3249	-72.4012	-134.874	-36.6291	-96.9375	-128.843	-63.8325	-31.8645	-117.511	-56.6853	-55.7582	-111.866	-37.3411	-79.2615	-107.49	-55.1726	-10.7188	-98.8761	-45.6154	-30.2549	-86.9333	-28.9647	-48.8856	-140.543	-73.5664	19.5198	-142.665	-75.2178	51.1007	-174.612	-69.4461	28.4955	
9	0.075	-194.943	-34.8172	32.8195	-205.254	-9.7747	8.49608	-206.624	7.81532	-12.9595	-193.971	20.637	-31.1086	-177.468	-56.7104	-41.8039	-174.055	-50.0537	-67.463	-171.349	-33.8552	-91.6713	-152.146	-64.4427	-44.3101	-146.471	-56.0285	-72.4154	-138.509	-34.4761	-96.2941	-133.499	-61.9629	-34.5034	-119.018	-55.4609	-55.5126	-113.384	-34.6281	-77.8046	-113.611	-52.2808	-12.5528	-98.8218	-40.4634	-32.9781	-91.6638	-24.6108	-49.0486	-139.079	-72.5703	19.7691	-143.222	-74.31	46.2285	-176.788	-68.6078	28.5968	
10	0.0833333	-196.334	-33.9906	30.192	-200.524	-9.10367	8.14091	-196.731	9.96508	-15.7127	-181.923	22.7673	-34.5552	-175.31	-56.622	-42.3624	-176.968	-48.0175	-68.4119	-170.772	-30.1937	-91.9814	-150.888	-64.7213	-45.433	-146.305	-55.8746	-70.9222	-135.691	-33.8553	-94.5599	-128.181	-61.1691	-31.0271	-120.071	-53.7074	-56.1875	-114.972	-30.4171	-78.2905	-113.998	-51.4297	-13.2142	-100.619	-39.3961	-33.8394	-95.1606	-20.0091	-47.9522	-139.453	-72.4068	20.1258	-143.558	-72.952	45.2649	-174.828	-70.1316	27.9376	
